<?xml version="1.0" encoding="UTF-8" standalone="no"?>
<!-- Created with Inkscape (http://www.inkscape.org/) -->

<svg
   xmlns:dc="http://purl.org/dc/elements/1.1/"
   xmlns:cc="http://creativecommons.org/ns#"
   xmlns:rdf="http://www.w3.org/1999/02/22-rdf-syntax-ns#"
   xmlns:svg="http://www.w3.org/2000/svg"
   xmlns="http://www.w3.org/2000/svg"
   xmlns:sodipodi="http://sodipodi.sourceforge.net/DTD/sodipodi-0.dtd"
   xmlns:inkscape="http://www.inkscape.org/namespaces/inkscape"
   id="svg3374"
   version="1.1"
   inkscape:version="0.91 r13725"
   xml:space="preserve"
   width="260.9675"
   height="232.9875"
   viewBox="0 0 260.9675 232.9875"
   sodipodi:docname="compass-compact.svg"><metadata
     id="metadata3380"><rdf:RDF><cc:Work
         rdf:about=""><dc:format>image/svg+xml</dc:format><dc:type
           rdf:resource="http://purl.org/dc/dcmitype/StillImage" /><dc:title></dc:title></cc:Work></rdf:RDF></metadata><defs
     id="defs3378"><clipPath
       clipPathUnits="userSpaceOnUse"
       id="clipPath3388"><path
         d="m 77.295,1006.16 625.77,0 0,186.75 -625.77,0 0,-186.75 z"
         id="path3390"
         inkscape:connector-curvature="0"
         style="clip-rule:evenodd" /></clipPath><clipPath
       clipPathUnits="userSpaceOnUse"
       id="clipPath3478"><path
         d="m 77.295,1165.09 625.77,0 0,13.455 -625.77,0 0,-13.455 z"
         id="path3480"
         inkscape:connector-curvature="0"
         style="clip-rule:evenodd" /></clipPath><clipPath
       clipPathUnits="userSpaceOnUse"
       id="clipPath3490"><path
         d="m 77.295,1150.73 625.77,0 0,13.455 -625.77,0 0,-13.455 z"
         id="path3492"
         inkscape:connector-curvature="0"
         style="clip-rule:evenodd" /></clipPath><clipPath
       clipPathUnits="userSpaceOnUse"
       id="clipPath3510"><path
         d="m 77.295,1136.36 625.77,0 0,13.455 -625.77,0 0,-13.455 z"
         id="path3512"
         inkscape:connector-curvature="0"
         style="clip-rule:evenodd" /></clipPath><clipPath
       clipPathUnits="userSpaceOnUse"
       id="clipPath3522"><path
         d="m 77.295,1093.25 625.77,0 0,13.455 -625.77,0 0,-13.455 z"
         id="path3524"
         inkscape:connector-curvature="0"
         style="clip-rule:evenodd" /></clipPath><clipPath
       clipPathUnits="userSpaceOnUse"
       id="clipPath3534"><path
         d="m 77.295,1035.8 625.77,0 0,13.455 -625.77,0 0,-13.455 z"
         id="path3536"
         inkscape:connector-curvature="0"
         style="clip-rule:evenodd" /></clipPath><clipPath
       clipPathUnits="userSpaceOnUse"
       id="clipPath3546"><path
         d="m 301.7,1107.25 117.3,0 0,14.182 -117.3,0 0,-14.182 z"
         id="path3548"
         inkscape:connector-curvature="0"
         style="clip-rule:evenodd" /></clipPath><clipPath
       clipPathUnits="userSpaceOnUse"
       id="clipPath3558"><path
         d="m 419.18,1092.89 58.568,0 0,28.545 -58.568,0 0,-28.545 z"
         id="path3560"
         inkscape:connector-curvature="0"
         style="clip-rule:evenodd" /></clipPath><clipPath
       clipPathUnits="userSpaceOnUse"
       id="clipPath3570"><path
         d="m 301.7,1078.52 58.568,0 0,28.545 -58.568,0 0,-28.545 z"
         id="path3572"
         inkscape:connector-curvature="0"
         style="clip-rule:evenodd" /></clipPath><clipPath
       clipPathUnits="userSpaceOnUse"
       id="clipPath3582"><path
         d="m 360.45,1078.52 117.3,0 0,14.182 -117.3,0 0,-14.182 z"
         id="path3584"
         inkscape:connector-curvature="0"
         style="clip-rule:evenodd" /></clipPath><clipPath
       clipPathUnits="userSpaceOnUse"
       id="clipPath3594"><path
         d="m 301.7,1035.43 58.568,0 0,28.545 -58.568,0 0,-28.545 z"
         id="path3596"
         inkscape:connector-curvature="0"
         style="clip-rule:evenodd" /></clipPath><clipPath
       clipPathUnits="userSpaceOnUse"
       id="clipPath3606"><path
         d="m 360.45,1049.8 117.3,0 0,14.182 -117.3,0 0,-14.182 z"
         id="path3608"
         inkscape:connector-curvature="0"
         style="clip-rule:evenodd" /></clipPath><clipPath
       clipPathUnits="userSpaceOnUse"
       id="clipPath3618"><path
         d="m 419.18,1021.07 58.568,0 0,28.545 -58.568,0 0,-28.545 z"
         id="path3620"
         inkscape:connector-curvature="0"
         style="clip-rule:evenodd" /></clipPath><clipPath
       clipPathUnits="userSpaceOnUse"
       id="clipPath3630"><path
         d="m 301.7,1021.07 117.3,0 0,14.182 -117.3,0 0,-14.182 z"
         id="path3632"
         inkscape:connector-curvature="0"
         style="clip-rule:evenodd" /></clipPath><clipPath
       clipPathUnits="userSpaceOnUse"
       id="clipPath3642"><path
         d="m 75.477,1004.16 629.59,0 0,190.57 -629.59,0 0,-190.57 z"
         id="path3644"
         inkscape:connector-curvature="0"
         style="clip-rule:evenodd" /></clipPath></defs><sodipodi:namedview
     pagecolor="#ffffff"
     bordercolor="#666666"
     borderopacity="1"
     objecttolerance="10"
     gridtolerance="10"
     guidetolerance="10"
     inkscape:pageopacity="0"
     inkscape:pageshadow="2"
     inkscape:window-width="1916"
     inkscape:window-height="1058"
     id="namedview3376"
     showgrid="false"
     inkscape:zoom="1.28"
     inkscape:cx="193.80444"
     inkscape:cy="245.28311"
     inkscape:window-x="0"
     inkscape:window-y="20"
     inkscape:window-maximized="0"
     inkscape:current-layer="g3382"
     fit-margin-top="0"
     fit-margin-left="0"
     fit-margin-right="0"
     fit-margin-bottom="0" /><g
     id="g3382"
     inkscape:groupmode="layer"
     inkscape:label="compass-compact"
     transform="matrix(1.25,0,0,-1.25,-356.675,1491.1375)"><g
       id="g3384"><g
         id="g3386"
         clip-path="url(#clipPath3388)"><path
           d="m 285.34,1178.91 208.77,0 0,14.545 -208.77,0 0,-14.545 z"
           style="fill:#ffffff;fill-opacity:1;fill-rule:evenodd;stroke:none"
           id="path3392"
           inkscape:connector-curvature="0" /><path
           d="m 285.34,1164.55 75.114,0 0,14.545 -75.114,0 0,-14.545 z"
           style="fill:#ffffff;fill-opacity:1;fill-rule:evenodd;stroke:none"
           id="path3394"
           inkscape:connector-curvature="0" /><path
           d="m 360.27,1164.55 58.909,0 0,14.545 -58.909,0 0,-14.545 z"
           style="fill:#95b3d7;fill-opacity:1;fill-rule:evenodd;stroke:none"
           id="path3396"
           inkscape:connector-curvature="0" /><path
           d="m 419,1164.55 75.114,0 0,14.545 -75.114,0 0,-14.545 z"
           style="fill:#ffffff;fill-opacity:1;fill-rule:evenodd;stroke:none"
           id="path3398"
           inkscape:connector-curvature="0" /><path
           d="m 285.34,1150.18 16.364,0 0,14.545 -16.364,0 0,-14.545 z"
           style="fill:#ffffff;fill-opacity:1;fill-rule:evenodd;stroke:none"
           id="path3400"
           inkscape:connector-curvature="0" /><path
           d="m 301.52,1150.18 58.932,0 0,14.545 -58.932,0 0,-14.545 z"
           style="fill:#da9694;fill-opacity:1;fill-rule:evenodd;stroke:none"
           id="path3402"
           inkscape:connector-curvature="0" /><path
           d="m 360.27,1150.18 58.909,0 0,14.545 -58.909,0 0,-14.545 z"
           style="fill:#ffffff;fill-opacity:1;fill-rule:evenodd;stroke:none"
           id="path3404"
           inkscape:connector-curvature="0" /><path
           d="m 419,1150.18 58.932,0 0,14.545 -58.932,0 0,-14.545 z"
           style="fill:#da9694;fill-opacity:1;fill-rule:evenodd;stroke:none"
           id="path3406"
           inkscape:connector-curvature="0" /><path
           d="m 477.75,1150.18 16.364,0 0,14.545 -16.364,0 0,-14.545 z"
           style="fill:#ffffff;fill-opacity:1;fill-rule:evenodd;stroke:none"
           id="path3408"
           inkscape:connector-curvature="0" /><path
           d="m 285.34,1135.82 75.114,0 0,14.545 -75.114,0 0,-14.545 z"
           style="fill:#ffffff;fill-opacity:1;fill-rule:evenodd;stroke:none"
           id="path3410"
           inkscape:connector-curvature="0" /><path
           d="m 360.27,1135.82 58.909,0 0,14.545 -58.909,0 0,-14.545 z"
           style="fill:#c4d79b;fill-opacity:1;fill-rule:evenodd;stroke:none"
           id="path3412"
           inkscape:connector-curvature="0" /><path
           d="m 419,1135.82 75.114,0 0,14.545 -75.114,0 0,-14.545 z"
           style="fill:#ffffff;fill-opacity:1;fill-rule:evenodd;stroke:none"
           id="path3414"
           inkscape:connector-curvature="0" /><path
           d="m 285.34,1121.43 208.77,0 0,14.568 -208.77,0 0,-14.568 z"
           style="fill:#ffffff;fill-opacity:1;fill-rule:evenodd;stroke:none"
           id="path3416"
           inkscape:connector-curvature="0" /><path
           d="m 285.34,1107.07 16.364,0 0,14.545 -16.364,0 0,-14.545 z"
           style="fill:#ffffff;fill-opacity:1;fill-rule:evenodd;stroke:none"
           id="path3418"
           inkscape:connector-curvature="0" /><path
           d="m 301.52,1107.07 117.66,0 0,14.545 -117.66,0 0,-14.545 z"
           style="fill:#95b3d7;fill-opacity:1;fill-rule:evenodd;stroke:none"
           id="path3420"
           inkscape:connector-curvature="0" /><path
           d="m 419,1107.07 58.932,0 0,14.545 -58.932,0 0,-14.545 z"
           style="fill:#da9694;fill-opacity:1;fill-rule:evenodd;stroke:none"
           id="path3422"
           inkscape:connector-curvature="0" /><path
           d="m 477.75,1107.07 16.364,0 0,14.545 -16.364,0 0,-14.545 z"
           style="fill:#ffffff;fill-opacity:1;fill-rule:evenodd;stroke:none"
           id="path3424"
           inkscape:connector-curvature="0" /><path
           d="m 285.34,1092.7 16.364,0 0,14.545 -16.364,0 0,-14.545 z"
           style="fill:#ffffff;fill-opacity:1;fill-rule:evenodd;stroke:none"
           id="path3426"
           inkscape:connector-curvature="0" /><path
           d="m 301.52,1092.7 58.932,0 0,14.545 -58.932,0 0,-14.545 z"
           style="fill:#da9694;fill-opacity:1;fill-rule:evenodd;stroke:none"
           id="path3428"
           inkscape:connector-curvature="0" /><path
           d="m 360.27,1092.7 58.909,0 0,14.545 -58.909,0 0,-14.545 z"
           style="fill:#ffffff;fill-opacity:1;fill-rule:evenodd;stroke:none"
           id="path3430"
           inkscape:connector-curvature="0" /><path
           d="m 419,1092.7 58.932,0 0,14.545 -58.932,0 0,-14.545 z"
           style="fill:#da9694;fill-opacity:1;fill-rule:evenodd;stroke:none"
           id="path3432"
           inkscape:connector-curvature="0" /><path
           d="m 477.75,1092.7 16.364,0 0,14.545 -16.364,0 0,-14.545 z"
           style="fill:#ffffff;fill-opacity:1;fill-rule:evenodd;stroke:none"
           id="path3434"
           inkscape:connector-curvature="0" /><path
           d="m 285.34,1078.34 16.364,0 0,14.545 -16.364,0 0,-14.545 z"
           style="fill:#ffffff;fill-opacity:1;fill-rule:evenodd;stroke:none"
           id="path3436"
           inkscape:connector-curvature="0" /><path
           d="m 301.52,1078.34 58.932,0 0,14.545 -58.932,0 0,-14.545 z"
           style="fill:#da9694;fill-opacity:1;fill-rule:evenodd;stroke:none"
           id="path3438"
           inkscape:connector-curvature="0" /><path
           d="m 360.27,1078.34 117.66,0 0,14.545 -117.66,0 0,-14.545 z"
           style="fill:#c4d79b;fill-opacity:1;fill-rule:evenodd;stroke:none"
           id="path3440"
           inkscape:connector-curvature="0" /><path
           d="m 477.75,1078.34 16.364,0 0,14.545 -16.364,0 0,-14.545 z"
           style="fill:#ffffff;fill-opacity:1;fill-rule:evenodd;stroke:none"
           id="path3442"
           inkscape:connector-curvature="0" /><path
           d="m 285.34,1063.98 208.77,0 0,14.545 -208.77,0 0,-14.545 z"
           style="fill:#ffffff;fill-opacity:1;fill-rule:evenodd;stroke:none"
           id="path3444"
           inkscape:connector-curvature="0" /><path
           d="m 285.34,1049.61 16.364,0 0,14.545 -16.364,0 0,-14.545 z"
           style="fill:#ffffff;fill-opacity:1;fill-rule:evenodd;stroke:none"
           id="path3446"
           inkscape:connector-curvature="0" /><path
           d="m 301.52,1049.61 58.932,0 0,14.545 -58.932,0 0,-14.545 z"
           style="fill:#da9694;fill-opacity:1;fill-rule:evenodd;stroke:none"
           id="path3448"
           inkscape:connector-curvature="0" /><path
           d="m 360.27,1049.61 117.66,0 0,14.545 -117.66,0 0,-14.545 z"
           style="fill:#95b3d7;fill-opacity:1;fill-rule:evenodd;stroke:none"
           id="path3450"
           inkscape:connector-curvature="0" /><path
           d="m 477.75,1049.61 16.364,0 0,14.545 -16.364,0 0,-14.545 z"
           style="fill:#ffffff;fill-opacity:1;fill-rule:evenodd;stroke:none"
           id="path3452"
           inkscape:connector-curvature="0" /><path
           d="m 285.34,1035.25 16.364,0 0,14.545 -16.364,0 0,-14.545 z"
           style="fill:#ffffff;fill-opacity:1;fill-rule:evenodd;stroke:none"
           id="path3454"
           inkscape:connector-curvature="0" /><path
           d="m 301.52,1035.25 58.932,0 0,14.545 -58.932,0 0,-14.545 z"
           style="fill:#da9694;fill-opacity:1;fill-rule:evenodd;stroke:none"
           id="path3456"
           inkscape:connector-curvature="0" /><path
           d="m 360.27,1035.25 58.909,0 0,14.545 -58.909,0 0,-14.545 z"
           style="fill:#ffffff;fill-opacity:1;fill-rule:evenodd;stroke:none"
           id="path3458"
           inkscape:connector-curvature="0" /><path
           d="m 419,1035.25 58.932,0 0,14.545 -58.932,0 0,-14.545 z"
           style="fill:#da9694;fill-opacity:1;fill-rule:evenodd;stroke:none"
           id="path3460"
           inkscape:connector-curvature="0" /><path
           d="m 477.75,1035.25 16.364,0 0,14.545 -16.364,0 0,-14.545 z"
           style="fill:#ffffff;fill-opacity:1;fill-rule:evenodd;stroke:none"
           id="path3462"
           inkscape:connector-curvature="0" /><path
           d="m 285.34,1020.89 16.364,0 0,14.545 -16.364,0 0,-14.545 z"
           style="fill:#ffffff;fill-opacity:1;fill-rule:evenodd;stroke:none"
           id="path3464"
           inkscape:connector-curvature="0" /><path
           d="m 301.52,1020.89 117.66,0 0,14.545 -117.66,0 0,-14.545 z"
           style="fill:#c4d79b;fill-opacity:1;fill-rule:evenodd;stroke:none"
           id="path3466"
           inkscape:connector-curvature="0" /><path
           d="m 419,1020.89 58.932,0 0,14.545 -58.932,0 0,-14.545 z"
           style="fill:#da9694;fill-opacity:1;fill-rule:evenodd;stroke:none"
           id="path3468"
           inkscape:connector-curvature="0" /><path
           d="m 477.75,1020.89 16.364,0 0,14.545 -16.364,0 0,-14.545 z"
           style="fill:#ffffff;fill-opacity:1;fill-rule:evenodd;stroke:none"
           id="path3470"
           inkscape:connector-curvature="0" /><path
           d="m 285.34,1006.52 208.77,0 0,14.545 -208.77,0 0,-14.545 z"
           style="fill:#ffffff;fill-opacity:1;fill-rule:evenodd;stroke:none"
           id="path3472"
           inkscape:connector-curvature="0" /></g></g><g
       id="g3474"><g
         id="g3476"
         clip-path="url(#clipPath3478)"><text
           transform="matrix(1,0,0,-1,386.64,1168)"
           style="font-variant:normal;font-weight:normal;font-size:11.0909996px;font-family:Calibri;-inkscape-font-specification:Calibri;writing-mode:lr-tb;fill:#000000;fill-opacity:1;fill-rule:nonzero;stroke:none"
           id="text3482"><tspan
             x="0"
             y="0"
             id="tspan3484">N</tspan></text>
</g></g><g
       id="g3486"><g
         id="g3488"
         clip-path="url(#clipPath3490)"><text
           transform="matrix(1,0,0,-1,326.43,1153.64)"
           style="font-variant:normal;font-weight:normal;font-size:11.0909996px;font-family:Calibri;-inkscape-font-specification:Calibri;writing-mode:lr-tb;fill:#000000;fill-opacity:1;fill-rule:nonzero;stroke:none"
           id="text3494"><tspan
             x="0"
             y="0"
             id="tspan3496">W</tspan></text>
<text
           transform="matrix(1,0,0,-1,378.09,1153.64)"
           style="font-variant:normal;font-weight:normal;font-size:11.0909996px;font-family:Calibri;-inkscape-font-specification:Calibri;writing-mode:lr-tb;fill:#000000;fill-opacity:1;fill-rule:nonzero;stroke:none"
           id="text3498"><tspan
             x="0 5.0796781 10.347903 12.898833 18.721607"
             y="0"
             sodipodi:role="line"
             id="tspan3500">value</tspan></text>
<text
           transform="matrix(1,0,0,-1,446.09,1153.64)"
           style="font-variant:normal;font-weight:normal;font-size:11.0909996px;font-family:Calibri;-inkscape-font-specification:Calibri;writing-mode:lr-tb;fill:#000000;fill-opacity:1;fill-rule:nonzero;stroke:none"
           id="text3502"><tspan
             x="0"
             y="0"
             id="tspan3504">E</tspan></text>
</g></g><g
       id="g3506"><g
         id="g3508"
         clip-path="url(#clipPath3510)"><text
           transform="matrix(1,0,0,-1,387.55,1139.27)"
           style="font-variant:normal;font-weight:normal;font-size:11.0909996px;font-family:Calibri;-inkscape-font-specification:Calibri;writing-mode:lr-tb;fill:#000000;fill-opacity:1;fill-rule:nonzero;stroke:none"
           id="text3514"><tspan
             x="0"
             y="0"
             id="tspan3516">S</tspan></text>
</g></g><g
       id="g3518"><g
         id="g3520"
         clip-path="url(#clipPath3522)"><text
           transform="matrix(1,0,0,-1,378.09,1096.16)"
           style="font-variant:normal;font-weight:normal;font-size:11.0909996px;font-family:Calibri;-inkscape-font-specification:Calibri;writing-mode:lr-tb;fill:#000000;fill-opacity:1;fill-rule:nonzero;stroke:none"
           id="text3526"><tspan
             x="0 5.0796781 10.347903 12.898833 18.721607"
             y="0"
             sodipodi:role="line"
             id="tspan3528">value</tspan></text>
</g></g><g
       id="g3530"><g
         id="g3532"
         clip-path="url(#clipPath3534)"><text
           transform="matrix(1,0,0,-1,378.09,1038.7)"
           style="font-variant:normal;font-weight:normal;font-size:11.0909996px;font-family:Calibri;-inkscape-font-specification:Calibri;writing-mode:lr-tb;fill:#000000;fill-opacity:1;fill-rule:nonzero;stroke:none"
           id="text3538"><tspan
             x="0 5.0796781 10.347903 12.898833 18.721607"
             y="0"
             sodipodi:role="line"
             id="tspan3540">value</tspan></text>
</g></g><g
       id="g3542"><g
         id="g3544"
         clip-path="url(#clipPath3546)"><text
           transform="matrix(1,0,0,-1,348.8,1111.07)"
           style="font-variant:normal;font-weight:normal;font-size:11.0909996px;font-family:Calibri;-inkscape-font-specification:Calibri;writing-mode:lr-tb;fill:#000000;fill-opacity:1;fill-rule:nonzero;stroke:none"
           id="text3550"><tspan
             x="0 7.0909858 14.181972"
             y="0"
             sodipodi:role="line"
             id="tspan3552">NNW</tspan></text>
</g></g><g
       id="g3554"><g
         id="g3556"
         clip-path="url(#clipPath3558)"><text
           transform="matrix(1,0,0,-1,439.91,1103.8)"
           style="font-variant:normal;font-weight:normal;font-size:11.0909996px;font-family:Calibri;-inkscape-font-specification:Calibri;writing-mode:lr-tb;fill:#000000;fill-opacity:1;fill-rule:nonzero;stroke:none"
           id="text3562"><tspan
             x="0 5.4456811 12.53283"
             y="0"
             sodipodi:role="line"
             id="tspan3564">ENE</tspan></text>
</g></g><g
       id="g3566"><g
         id="g3568"
         clip-path="url(#clipPath3570)"><text
           transform="matrix(1,0,0,-1,318.98,1089.43)"
           style="font-variant:normal;font-weight:normal;font-size:11.0909996px;font-family:Calibri;-inkscape-font-specification:Calibri;writing-mode:lr-tb;fill:#000000;fill-opacity:1;fill-rule:nonzero;stroke:none"
           id="text3574"><tspan
             x="0 9.8155346 14.906304"
             y="0"
             sodipodi:role="line"
             id="tspan3576">WSW</tspan></text>
</g></g><g
       id="g3578"><g
         id="g3580"
         clip-path="url(#clipPath3582)"><text
           transform="matrix(1,0,0,-1,411.73,1082.34)"
           style="font-variant:normal;font-weight:normal;font-size:11.0909996px;font-family:Calibri;-inkscape-font-specification:Calibri;writing-mode:lr-tb;fill:#000000;fill-opacity:1;fill-rule:nonzero;stroke:none"
           id="text3586"><tspan
             x="0 5.090951 10.181902"
             y="0"
             sodipodi:role="line"
             id="tspan3588">SSE</tspan></text>
</g></g><g
       id="g3590"><g
         id="g3592"
         clip-path="url(#clipPath3594)"><text
           transform="matrix(1,0,0,-1,318.07,1046.34)"
           style="font-variant:normal;font-weight:normal;font-size:11.0909996px;font-family:Calibri;-inkscape-font-specification:Calibri;writing-mode:lr-tb;fill:#000000;fill-opacity:1;fill-rule:nonzero;stroke:none"
           id="text3598"><tspan
             x="0 9.8155346 16.902683"
             y="0"
             sodipodi:role="line"
             id="tspan3600">WNW</tspan></text>
</g></g><g
       id="g3602"><g
         id="g3604"
         clip-path="url(#clipPath3606)"><text
           transform="matrix(1,0,0,-1,409.73,1053.61)"
           style="font-variant:normal;font-weight:normal;font-size:11.0909996px;font-family:Calibri;-inkscape-font-specification:Calibri;writing-mode:lr-tb;fill:#000000;fill-opacity:1;fill-rule:nonzero;stroke:none"
           id="text3610"><tspan
             x="0 7.0909858 14.181972"
             y="0"
             sodipodi:role="line"
             id="tspan3612">NNE</tspan></text>
</g></g><g
       id="g3614"><g
         id="g3616"
         clip-path="url(#clipPath3618)"><text
           transform="matrix(1,0,0,-1,440.82,1031.98)"
           style="font-variant:normal;font-weight:normal;font-size:11.0909996px;font-family:Calibri;-inkscape-font-specification:Calibri;writing-mode:lr-tb;fill:#000000;fill-opacity:1;fill-rule:nonzero;stroke:none"
           id="text3622"><tspan
             x="0 5.4456811 10.53645"
             y="0"
             sodipodi:role="line"
             id="tspan3624">ESE</tspan></text>
</g></g><g
       id="g3626"><g
         id="g3628"
         clip-path="url(#clipPath3630)"><text
           transform="matrix(1,0,0,-1,350.82,1024.89)"
           style="font-variant:normal;font-weight:normal;font-size:11.0909996px;font-family:Calibri;-inkscape-font-specification:Calibri;writing-mode:lr-tb;fill:#000000;fill-opacity:1;fill-rule:nonzero;stroke:none"
           id="text3634"><tspan
             x="0 5.090951 10.181902"
             y="0"
             sodipodi:role="line"
             id="tspan3636">SSW</tspan></text>
</g></g><g
       id="g3638"><g
         id="g3640"
         clip-path="url(#clipPath3642)"><path
           d="m 418.73,1164.09 0,-14.18"
           style="fill:none;stroke:#808080;stroke-width:0.18182001;stroke-linecap:square;stroke-linejoin:round;stroke-miterlimit:10;stroke-dasharray:none;stroke-opacity:1"
           id="path3646"
           inkscape:connector-curvature="0" /><path
           d="m 418.64,1149.82 0.90909,0 0,14.364 -0.90909,0 0,-14.364 z"
           style="fill:#808080;fill-opacity:1;fill-rule:evenodd;stroke:none"
           id="path3648"
           inkscape:connector-curvature="0" /><path
           d="m 360,1165 0,-15.09"
           style="fill:none;stroke:#808080;stroke-width:0.18182001;stroke-linecap:square;stroke-linejoin:round;stroke-miterlimit:10;stroke-dasharray:none;stroke-opacity:1"
           id="path3650"
           inkscape:connector-curvature="0" /><path
           d="m 359.91,1149.82 0.90912,0 0,15.273 -0.90912,0 0,-15.273 z"
           style="fill:#808080;fill-opacity:1;fill-rule:evenodd;stroke:none"
           id="path3652"
           inkscape:connector-curvature="0" /><path
           d="m 360,1106.61 0,-28.18"
           style="fill:none;stroke:#808080;stroke-width:0.18182001;stroke-linecap:square;stroke-linejoin:round;stroke-miterlimit:10;stroke-dasharray:none;stroke-opacity:1"
           id="path3654"
           inkscape:connector-curvature="0" /><path
           d="m 359.91,1078.34 0.90912,0 0,28.364 -0.90912,0 0,-28.364 z"
           style="fill:#808080;fill-opacity:1;fill-rule:evenodd;stroke:none"
           id="path3656"
           inkscape:connector-curvature="0" /><path
           d="m 418.73,1121.52 0,-29.09"
           style="fill:none;stroke:#808080;stroke-width:0.18182001;stroke-linecap:square;stroke-linejoin:round;stroke-miterlimit:10;stroke-dasharray:none;stroke-opacity:1"
           id="path3658"
           inkscape:connector-curvature="0" /><path
           d="m 418.64,1092.34 0.90909,0 0,29.273 -0.90909,0 0,-29.273 z"
           style="fill:#808080;fill-opacity:1;fill-rule:evenodd;stroke:none"
           id="path3660"
           inkscape:connector-curvature="0" /><path
           d="m 360,1064.07 0,-29.09"
           style="fill:none;stroke:#808080;stroke-width:0.18182001;stroke-linecap:square;stroke-linejoin:round;stroke-miterlimit:10;stroke-dasharray:none;stroke-opacity:1"
           id="path3662"
           inkscape:connector-curvature="0" /><path
           d="m 359.91,1034.89 0.90912,0 0,29.273 -0.90912,0 0,-29.273 z"
           style="fill:#808080;fill-opacity:1;fill-rule:evenodd;stroke:none"
           id="path3664"
           inkscape:connector-curvature="0" /><path
           d="m 418.73,1049.16 0,-28.18"
           style="fill:none;stroke:#808080;stroke-width:0.18182001;stroke-linecap:square;stroke-linejoin:round;stroke-miterlimit:10;stroke-dasharray:none;stroke-opacity:1"
           id="path3666"
           inkscape:connector-curvature="0" /><path
           d="m 418.64,1020.89 0.90909,0 0,28.364 -0.90909,0 0,-28.364 z"
           style="fill:#808080;fill-opacity:1;fill-rule:evenodd;stroke:none"
           id="path3668"
           inkscape:connector-curvature="0" /><path
           d="m 360.91,1165 58.54,0"
           style="fill:none;stroke:#808080;stroke-width:0.18182001;stroke-linecap:square;stroke-linejoin:round;stroke-miterlimit:10;stroke-dasharray:none;stroke-opacity:1"
           id="path3670"
           inkscape:connector-curvature="0" /><path
           d="m 360.82,1164.18 58.727,0 0,0.9091 -58.727,0 0,-0.9091 z"
           style="fill:#808080;fill-opacity:1;fill-rule:evenodd;stroke:none"
           id="path3672"
           inkscape:connector-curvature="0" /><path
           d="m 360.91,1150.64 58.54,0"
           style="fill:none;stroke:#808080;stroke-width:0.18182001;stroke-linecap:square;stroke-linejoin:round;stroke-miterlimit:10;stroke-dasharray:none;stroke-opacity:1"
           id="path3674"
           inkscape:connector-curvature="0" /><path
           d="m 360.82,1149.82 58.727,0 0,0.9091 -58.727,0 0,-0.9091 z"
           style="fill:#808080;fill-opacity:1;fill-rule:evenodd;stroke:none"
           id="path3676"
           inkscape:connector-curvature="0" /><path
           d="m 301.61,1107.52 117.84,0"
           style="fill:none;stroke:#808080;stroke-width:0.18182001;stroke-linecap:square;stroke-linejoin:round;stroke-miterlimit:10;stroke-dasharray:none;stroke-opacity:1"
           id="path3678"
           inkscape:connector-curvature="0" /><path
           d="m 301.52,1106.7 118.02,0 0,0.9091 -118.02,0 0,-0.9091 z"
           style="fill:#808080;fill-opacity:1;fill-rule:evenodd;stroke:none"
           id="path3680"
           inkscape:connector-curvature="0" /><path
           d="m 360.91,1093.16 116.93,0"
           style="fill:none;stroke:#808080;stroke-width:0.18182001;stroke-linecap:square;stroke-linejoin:round;stroke-miterlimit:10;stroke-dasharray:none;stroke-opacity:1"
           id="path3682"
           inkscape:connector-curvature="0" /><path
           d="m 360.82,1092.34 117.11,0 0,0.9091 -117.11,0 0,-0.9091 z"
           style="fill:#808080;fill-opacity:1;fill-rule:evenodd;stroke:none"
           id="path3684"
           inkscape:connector-curvature="0" /><path
           d="m 360.91,1050.07 116.93,0"
           style="fill:none;stroke:#808080;stroke-width:0.18182001;stroke-linecap:square;stroke-linejoin:round;stroke-miterlimit:10;stroke-dasharray:none;stroke-opacity:1"
           id="path3686"
           inkscape:connector-curvature="0" /><path
           d="m 360.82,1049.25 117.11,0 0,0.9091 -117.11,0 0,-0.9091 z"
           style="fill:#808080;fill-opacity:1;fill-rule:evenodd;stroke:none"
           id="path3688"
           inkscape:connector-curvature="0" /><path
           d="m 301.61,1035.7 117.84,0"
           style="fill:none;stroke:#808080;stroke-width:0.18182001;stroke-linecap:square;stroke-linejoin:round;stroke-miterlimit:10;stroke-dasharray:none;stroke-opacity:1"
           id="path3690"
           inkscape:connector-curvature="0" /><path
           d="m 301.52,1034.89 118.02,0 0,0.9091 -118.02,0 0,-0.9091 z"
           style="fill:#808080;fill-opacity:1;fill-rule:evenodd;stroke:none"
           id="path3692"
           inkscape:connector-curvature="0" /></g></g></g></svg>