<?xml version="1.0" encoding="UTF-8" standalone="no"?>
<!-- Created with Inkscape (http://www.inkscape.org/) -->

<svg
   xmlns:dc="http://purl.org/dc/elements/1.1/"
   xmlns:cc="http://creativecommons.org/ns#"
   xmlns:rdf="http://www.w3.org/1999/02/22-rdf-syntax-ns#"
   xmlns:svg="http://www.w3.org/2000/svg"
   xmlns="http://www.w3.org/2000/svg"
   xmlns:sodipodi="http://sodipodi.sourceforge.net/DTD/sodipodi-0.dtd"
   xmlns:inkscape="http://www.inkscape.org/namespaces/inkscape"
   width="210mm"
   height="297mm"
   viewBox="0 0 744.09448819 1052.3622047"
   id="svg2"
   version="1.1"
   inkscape:version="0.91 r13725"
   sodipodi:docname="logo.svg">
  <defs
     id="defs4">
    <clipPath
       id="clipEmfPath1"
       clipPathUnits="userSpaceOnUse">
      <path
         inkscape:connector-curvature="0"
         id="path3341"
         d="m 0,0 206.309,0 0,56.2806 -206.309,0 z" />
    </clipPath>
    <clipPath
       id="clipEmfPath2"
       clipPathUnits="userSpaceOnUse">
      <path
         inkscape:connector-curvature="0"
         id="path3344"
         d="m 0.937768,0.922633 205.371232,0 0,55.357967 -205.371232,0 z" />
    </clipPath>
    <clipPath
       id="clipEmfPath3"
       clipPathUnits="userSpaceOnUse">
      <path
         inkscape:connector-curvature="0"
         id="path3347"
         d="m 0.937768,0.922633 135.976232,0 0,17.530067 -135.976232,0 z" />
    </clipPath>
    <clipPath
       id="clipEmfPath4"
       clipPathUnits="userSpaceOnUse">
      <path
         inkscape:connector-curvature="0"
         id="path3350"
         d="m 137.852,0.922633 67.519,0 0,35.982667 -67.519,0 z" />
    </clipPath>
    <clipPath
       id="clipEmfPath5"
       clipPathUnits="userSpaceOnUse">
      <path
         inkscape:connector-curvature="0"
         id="path3353"
         d="m 0.937768,19.3753 67.519332,0 0,35.9827 -67.519332,0 z" />
    </clipPath>
    <clipPath
       id="clipEmfPath6"
       clipPathUnits="userSpaceOnUse">
      <path
         inkscape:connector-curvature="0"
         id="path3356"
         d="m 69.3949,37.828 135.9761,0 0,17.53 -135.9761,0 z" />
    </clipPath>
    <clipPath
       id="clipEmfPath7"
       clipPathUnits="userSpaceOnUse">
      <path
         inkscape:connector-curvature="0"
         id="path3359"
         d="m 0.9375,0.921875 0,55.359375 205.37109,0 0,-55.359375 -205.37109,0 z" />
    </clipPath>
    <pattern
       y="0"
       x="0"
       height="6"
       width="6"
       patternUnits="userSpaceOnUse"
       id="EMFhbasepattern" />
  </defs>
  <sodipodi:namedview
     id="base"
     pagecolor="#ffffff"
     bordercolor="#666666"
     borderopacity="1.0"
     inkscape:pageopacity="0.0"
     inkscape:pageshadow="2"
     inkscape:zoom="0.49497475"
     inkscape:cx="51.599411"
     inkscape:cy="794.28046"
     inkscape:document-units="px"
     inkscape:current-layer="layer1"
     showgrid="false"
     inkscape:window-width="1916"
     inkscape:window-height="1058"
     inkscape:window-x="0"
     inkscape:window-y="20"
     inkscape:window-maximized="0" />
  <metadata
     id="metadata7">
    <rdf:RDF>
      <cc:Work
         rdf:about="">
        <dc:format>image/svg+xml</dc:format>
        <dc:type
           rdf:resource="http://purl.org/dc/dcmitype/StillImage" />
        <dc:title></dc:title>
      </cc:Work>
    </rdf:RDF>
  </metadata>
  <g
     inkscape:label="Layer 1"
     inkscape:groupmode="layer"
     id="layer1">
    <g
       transform="matrix(10.073361,0,0,10.073361,-756.25534,111.94069)"
       id="g3362"
       clip-path="url(#clipEmfPath2)"
       inkscape:export-xdpi="43.338314"
       inkscape:export-ydpi="43.338314" />
    <path
       transform="matrix(10.073361,0,0,10.073361,-756.25534,111.94069)"
       inkscape:connector-curvature="0"
       id="path3364"
       d="m 0,0 137.852,0 0,19.3753 -137.852,0 z"
       clip-path="url(#clipEmfPath2)"
       style="fill:#95b3d7;fill-opacity:1;fill-rule:evenodd;stroke:none"
       inkscape:export-xdpi="43.338314"
       inkscape:export-ydpi="43.338314" />
    <path
       transform="matrix(10.073361,0,0,10.073361,-756.25534,111.94069)"
       inkscape:connector-curvature="0"
       id="path3366"
       d="m 136.914,0 69.395,0 0,19.3753 -69.395,0 z"
       clip-path="url(#clipEmfPath2)"
       style="fill:#c4d79b;fill-opacity:1;fill-rule:evenodd;stroke:none"
       inkscape:export-xdpi="43.338314"
       inkscape:export-ydpi="43.338314" />
    <path
       transform="matrix(10.073361,0,0,10.073361,-756.25534,111.94069)"
       inkscape:connector-curvature="0"
       id="path3368"
       d="m 205.371,0 19.693,0 0,19.3753 -19.693,0 z"
       clip-path="url(#clipEmfPath2)"
       style="fill:#ffffff;fill-opacity:1;fill-rule:evenodd;stroke:none"
       inkscape:export-xdpi="43.338314"
       inkscape:export-ydpi="43.338314" />
    <path
       transform="matrix(10.073361,0,0,10.073361,-756.25534,111.94069)"
       inkscape:connector-curvature="0"
       id="path3370"
       d="m 0,18.4527 69.3949,0 0,19.3753 -69.3949,0 z"
       clip-path="url(#clipEmfPath2)"
       style="fill:#da9694;fill-opacity:1;fill-rule:evenodd;stroke:none"
       inkscape:export-xdpi="43.338314"
       inkscape:export-ydpi="43.338314" />
    <path
       transform="matrix(10.073361,0,0,10.073361,-756.25534,111.94069)"
       inkscape:connector-curvature="0"
       id="path3372"
       d="m 68.4571,18.4527 69.3949,0 0,19.3753 -69.3949,0 z"
       clip-path="url(#clipEmfPath2)"
       style="fill:#ffffff;fill-opacity:1;fill-rule:evenodd;stroke:none"
       inkscape:export-xdpi="43.338314"
       inkscape:export-ydpi="43.338314" />
    <path
       transform="matrix(10.073361,0,0,10.073361,-756.25534,111.94069)"
       inkscape:connector-curvature="0"
       id="path3374"
       d="m 136.914,18.4527 69.395,0 0,19.3753 -69.395,0 z"
       clip-path="url(#clipEmfPath2)"
       style="fill:#c4d79b;fill-opacity:1;fill-rule:evenodd;stroke:none"
       inkscape:export-xdpi="43.338314"
       inkscape:export-ydpi="43.338314" />
    <path
       transform="matrix(10.073361,0,0,10.073361,-756.25534,111.94069)"
       inkscape:connector-curvature="0"
       id="path3376"
       d="m 205.371,18.4527 19.693,0 0,19.3753 -19.693,0 z"
       clip-path="url(#clipEmfPath2)"
       style="fill:#ffffff;fill-opacity:1;fill-rule:evenodd;stroke:none"
       inkscape:export-xdpi="43.338314"
       inkscape:export-ydpi="43.338314" />
    <path
       transform="matrix(10.073361,0,0,10.073361,-756.25534,111.94069)"
       inkscape:connector-curvature="0"
       id="path3378"
       d="m 0,36.9053 69.3949,0 0,19.3753 -69.3949,0 z"
       clip-path="url(#clipEmfPath2)"
       style="fill:#da9694;fill-opacity:1;fill-rule:evenodd;stroke:none"
       inkscape:export-xdpi="43.338314"
       inkscape:export-ydpi="43.338314" />
    <path
       transform="matrix(10.073361,0,0,10.073361,-756.25534,111.94069)"
       inkscape:connector-curvature="0"
       id="path3380"
       d="m 68.4571,36.9053 137.8519,0 0,19.3753 -137.8519,0 z"
       clip-path="url(#clipEmfPath2)"
       style="fill:#b1a0c7;fill-opacity:1;fill-rule:evenodd;stroke:none"
       inkscape:export-xdpi="43.338314"
       inkscape:export-ydpi="43.338314" />
    <path
       transform="matrix(10.073361,0,0,10.073361,-756.25534,111.94069)"
       inkscape:connector-curvature="0"
       id="path3382"
       d="m 205.371,36.9053 19.693,0 0,19.3753 -19.693,0 z"
       clip-path="url(#clipEmfPath2)"
       style="fill:#ffffff;fill-opacity:1;fill-rule:evenodd;stroke:none"
       inkscape:export-xdpi="43.338314"
       inkscape:export-ydpi="43.338314" />
    <path
       transform="matrix(10.073361,0,0,10.073361,-756.25534,111.94069)"
       inkscape:connector-curvature="0"
       id="path3384"
       d="m 0,55.358 225.064,0 0,19.3753 -225.064,0 z"
       clip-path="url(#clipEmfPath2)"
       style="fill:#ffffff;fill-opacity:1;fill-rule:evenodd;stroke:none"
       inkscape:export-xdpi="43.338314"
       inkscape:export-ydpi="43.338314" />
    <g
       transform="matrix(10.073361,0,0,10.073361,-756.25534,111.94069)"
       id="g3386"
       clip-path="url(#clipEmfPath2)"
       inkscape:export-xdpi="43.338314"
       inkscape:export-ydpi="43.338314" />
    <g
       transform="matrix(10.073361,0,0,10.073361,-756.25534,111.94069)"
       id="g3388"
       clip-path="url(#clipEmfPath2)"
       inkscape:export-xdpi="43.338314"
       inkscape:export-ydpi="43.338314" />
    <g
       transform="matrix(10.073361,0,0,10.073361,-756.25534,111.94069)"
       id="g3390"
       clip-path="url(#clipEmfPath2)"
       inkscape:export-xdpi="43.338314"
       inkscape:export-ydpi="43.338314">
      <text
         sodipodi:linespacing="125%"
         id="text3392"
         y="10.453125"
         x="0"
         transform="translate(78.772545,20.297929)"
         style="font-style:normal;font-variant:normal;font-weight:400;font-size:13.9375px;line-height:125%;font-family:Calibri;text-align:start;letter-spacing:0px;word-spacing:0px;text-anchor:start;fill:#000000;fill-opacity:1;stroke:none"
         xml:space="preserve"><tspan
           id="tspan3394"
           y="10.453125"
           x="0"
           sodipodi:role="line"><tspan
             id="tspan3396"
             style="font-style:normal;font-variant:normal;font-weight:400;font-size:13.9375px;font-family:Calibri;fill:#000000"
             dy="0"
             dx="0">unpivotr</tspan></tspan></text>
    </g>
    <g
       transform="matrix(10.073361,0,0,10.073361,-756.25534,111.94069)"
       id="g3398"
       clip-path="url(#clipEmfPath3)"
       inkscape:export-xdpi="43.338314"
       inkscape:export-ydpi="43.338314" />
    <g
       transform="matrix(10.073361,0,0,10.073361,-756.25534,111.94069)"
       id="g3408"
       clip-path="url(#clipEmfPath4)"
       inkscape:export-xdpi="43.338314"
       inkscape:export-ydpi="43.338314" />
    <g
       transform="matrix(10.073361,0,0,10.073361,-756.25534,111.94069)"
       id="g3418"
       clip-path="url(#clipEmfPath5)"
       inkscape:export-xdpi="43.338314"
       inkscape:export-ydpi="43.338314" />
    <g
       transform="matrix(10.073361,0,0,10.073361,-756.25534,111.94069)"
       id="g3428"
       clip-path="url(#clipEmfPath6)"
       inkscape:export-xdpi="43.338314"
       inkscape:export-ydpi="43.338314" />
    <path
       transform="matrix(10.073361,0,0,10.073361,-756.25534,111.94069)"
       inkscape:connector-curvature="0"
       id="path3438"
       d="m 0,18.4527 137.852,0"
       clip-path="url(#clipEmfPath1)"
       style="fill:none;stroke:#808080;stroke-width:0.93017px;stroke-linecap:round;stroke-linejoin:round;stroke-miterlimit:4;stroke-dasharray:none;stroke-opacity:1"
       inkscape:export-xdpi="43.338314"
       inkscape:export-ydpi="43.338314" />
    <path
       transform="matrix(10.073361,0,0,10.073361,-756.25534,111.94069)"
       inkscape:connector-curvature="0"
       id="path3440"
       d="m 0,18.4527 137.852,0 0,0.9226 -137.852,0 z"
       clip-path="url(#clipEmfPath1)"
       style="fill:#808080;fill-opacity:1;fill-rule:evenodd;stroke:#000000;stroke-width:1px;stroke-linecap:round;stroke-linejoin:round;stroke-miterlimit:4;stroke-dasharray:none;stroke-opacity:1"
       inkscape:export-xdpi="43.338314"
       inkscape:export-ydpi="43.338314" />
    <path
       transform="matrix(10.073361,0,0,10.073361,-756.25534,111.94069)"
       inkscape:connector-curvature="0"
       id="path3442"
       d="m 69.3949,36.9053 136.9141,0"
       clip-path="url(#clipEmfPath1)"
       style="fill:none;stroke:#808080;stroke-width:0.93017px;stroke-linecap:round;stroke-linejoin:round;stroke-miterlimit:4;stroke-dasharray:none;stroke-opacity:1"
       inkscape:export-xdpi="43.338314"
       inkscape:export-ydpi="43.338314" />
    <path
       transform="matrix(10.073361,0,0,10.073361,-756.25534,111.94069)"
       inkscape:connector-curvature="0"
       id="path3444"
       d="m 69.3949,36.9053 136.9141,0 0,0.9227 -136.9141,0 z"
       clip-path="url(#clipEmfPath1)"
       style="fill:#808080;fill-opacity:1;fill-rule:evenodd;stroke:#000000;stroke-width:1px;stroke-linecap:round;stroke-linejoin:round;stroke-miterlimit:4;stroke-dasharray:none;stroke-opacity:1"
       inkscape:export-xdpi="43.338314"
       inkscape:export-ydpi="43.338314" />
    <path
       transform="matrix(10.073361,0,0,10.073361,-756.25534,111.94069)"
       inkscape:connector-curvature="0"
       id="path3446"
       d="m 68.4571,19.3753 0,36.9053"
       clip-path="url(#clipEmfPath1)"
       style="fill:none;stroke:#808080;stroke-width:0.93017px;stroke-linecap:round;stroke-linejoin:round;stroke-miterlimit:4;stroke-dasharray:none;stroke-opacity:1"
       inkscape:export-xdpi="43.338314"
       inkscape:export-ydpi="43.338314" />
    <path
       transform="matrix(10.073361,0,0,10.073361,-756.25534,111.94069)"
       inkscape:connector-curvature="0"
       id="path3448"
       d="m 68.4571,19.3753 0.9378,0 0,36.9053 -0.9378,0 z"
       clip-path="url(#clipEmfPath1)"
       style="fill:#808080;fill-opacity:1;fill-rule:evenodd;stroke:#000000;stroke-width:1px;stroke-linecap:round;stroke-linejoin:round;stroke-miterlimit:4;stroke-dasharray:none;stroke-opacity:1"
       inkscape:export-xdpi="43.338314"
       inkscape:export-ydpi="43.338314" />
    <path
       transform="matrix(10.073361,0,0,10.073361,-756.25534,111.94069)"
       inkscape:connector-curvature="0"
       id="path3450"
       d="m 136.914,0 0,37.828"
       clip-path="url(#clipEmfPath1)"
       style="fill:none;stroke:#808080;stroke-width:0.93017px;stroke-linecap:round;stroke-linejoin:round;stroke-miterlimit:4;stroke-dasharray:none;stroke-opacity:1"
       inkscape:export-xdpi="43.338314"
       inkscape:export-ydpi="43.338314" />
    <path
       transform="matrix(10.073361,0,0,10.073361,-756.25534,111.94069)"
       inkscape:connector-curvature="0"
       id="path3452"
       d="m 136.914,0 0.938,0 0,37.828 -0.938,0 z"
       clip-path="url(#clipEmfPath1)"
       style="fill:#808080;fill-opacity:1;fill-rule:evenodd;stroke:#000000;stroke-width:1px;stroke-linecap:round;stroke-linejoin:round;stroke-miterlimit:4;stroke-dasharray:none;stroke-opacity:1"
       inkscape:export-xdpi="43.338314"
       inkscape:export-ydpi="43.338314" />
  </g>
</svg>
